<svg xmlns="http://www.w3.org/2000/svg" height="2048" preserveAspectRatio="none" style="display: block;" version="1.1" viewBox="0 0 2048 2048" width="2048">

<path d="M 1531.51 1630.17 C 1527.55 1630.5 1494.97 1639.87 1488.4 1641.69 C 1451.7 1651.67 1415.07 1661.93 1378.52 1672.45 L 935.66 1797.09 L 804.066 1834.23 C 776.886 1842.09 749.418 1850.92 721.932 1857.41 C 684.717 1866.2 647.848 1849.92 625.81 1819.61 C 614.579 1804.12 608.053 1785.72 607.014 1766.61 C 606.361 1754.27 606.874 1738.14 606.893 1725.49 L 606.886 1656.7 L 606.875 1443.16 L 606.962 780.448 L 606.985 429.348 L 606.751 327.651 C 606.709 309.481 605.501 285.341 608.193 267.789 C 615.032 223.205 658.708 185.697 704.101 187.284 C 722.185 187.916 742.781 194.151 760.613 198.428 L 824.514 213.309 C 920.527 235.594 1016.11 259.969 1112.34 281.285 C 1144.72 288.459 1179.2 298.565 1211.6 303.964 C 1216.7 303.538 1221.2 302.861 1226.49 303.255 C 1230.65 303.564 1230.09 308.294 1234.39 306.774 C 1235.01 307.145 1240.03 308.242 1240.54 308.289 C 1243.38 308.553 1243.99 308.619 1246.51 309.279 C 1254.01 311.234 1257.14 308.592 1262.31 315.434 C 1269.09 318.133 1295.34 323.641 1303.63 325.57 C 1334.69 332.977 1365.81 340.12 1396.99 347.001 L 1512.82 374.512 C 1523.59 377.002 1547.91 383.378 1557.55 384.841 C 1559.46 384.586 1573.81 383.96 1573.13 387.484 C 1572.55 390.417 1581.7 391.426 1581.92 391.611 C 1581.32 395.208 1595.51 402.15 1596.23 403.053 C 1595.96 403.839 1596.36 403.392 1595.47 404.24 C 1595.28 403.105 1611.07 422.351 1609.55 421.469 C 1610.15 421.406 1610.57 420.581 1611.45 420.164 C 1612.4 420.931 1611.43 427.1 1614.5 428.841 C 1616.56 430.01 1616.16 435.918 1616.25 438.139 C 1621.17 453.61 1624.84 459.941 1625.42 476.807 C 1626.12 497.282 1625.79 517.669 1625.77 538.143 L 1625.74 648.862 L 1625.55 1008.45 L 1625.65 1359.22 L 1625.7 1469.7 C 1625.75 1490.07 1626.11 1510.62 1625.53 1531 C 1624.96 1550.69 1616.27 1562.79 1610.48 1578.98 L 1610.53 1583.49 C 1610.57 1586.34 1607.94 1589.27 1606.13 1591.26 C 1600.13 1597.88 1602.1 1594.42 1602.23 1599.08 C 1596.67 1609.3 1594.04 1604.95 1589.54 1608.66 C 1588.66 1612.34 1587.19 1608.7 1585.33 1611.79 C 1587.97 1612.51 1586.6 1611.27 1589.53 1613.39 L 1589.5 1613.48 C 1587.63 1613.75 1583.14 1614.52 1581.64 1614.65 C 1581.04 1616.4 1581.01 1620.12 1577.98 1620.27 C 1576.7 1619.61 1574.96 1616.43 1573.23 1619.02 C 1571.29 1622.12 1571.19 1623.81 1567.33 1625.26 C 1562.49 1627.08 1557.49 1623.99 1553.03 1627.16 C 1551.01 1628.59 1543.4 1628.05 1540.71 1629.46 C 1538.54 1630.6 1533.89 1630.29 1531.51 1630.17 z" fill="rgb(2,1,1)" transform="translate(0,0)"></path>
<path d="M 1610.48 1578.98 L 1610.53 1583.49 C 1610.57 1586.34 1607.94 1589.27 1606.13 1591.26 C 1600.13 1597.88 1602.1 1594.42 1602.23 1599.08 C 1596.67 1609.3 1594.04 1604.95 1589.54 1608.66 C 1588.66 1612.34 1587.19 1608.7 1585.33 1611.79 C 1587.97 1612.51 1586.6 1611.27 1589.53 1613.39 L 1589.5 1613.48 C 1587.63 1613.75 1583.14 1614.52 1581.64 1614.65 C 1581.04 1616.4 1581.01 1620.12 1577.98 1620.27 C 1576.7 1619.61 1574.96 1616.43 1573.23 1619.02 C 1571.29 1622.12 1571.19 1623.81 1567.33 1625.26 C 1562.49 1627.08 1557.49 1623.99 1553.03 1627.16 C 1551.01 1628.59 1543.4 1628.05 1540.71 1629.46 C 1538.54 1630.6 1533.89 1630.29 1531.51 1630.17 C 1533.17 1629.57 1535.84 1628.59 1537.5 1628.23 C 1574.88 1620.27 1589.18 1609.78 1610.48 1578.98 z" fill="rgb(255,255,255)" transform="translate(0,0)"></path>
<path d="M 1557.55 384.841 C 1559.46 384.586 1573.81 383.96 1573.13 387.484 C 1572.55 390.417 1581.7 391.426 1581.92 391.611 C 1581.32 395.208 1595.51 402.15 1596.23 403.053 C 1595.96 403.839 1596.36 403.392 1595.47 404.24 C 1595.28 403.105 1611.07 422.351 1609.55 421.469 C 1610.15 421.406 1610.57 420.581 1611.45 420.164 C 1612.4 420.931 1611.43 427.1 1614.5 428.841 C 1616.56 430.01 1616.16 435.918 1616.25 438.139 C 1613.38 433.616 1611.28 428.829 1608.06 424.01 C 1593.65 402.41 1579.89 394.88 1557.55 384.841 z" fill="rgb(255,255,255)" transform="translate(0,0)"></path>
<path d="M 1211.6 303.964 C 1216.7 303.538 1221.2 302.861 1226.49 303.255 C 1230.65 303.564 1230.09 308.294 1234.39 306.774 C 1235.01 307.145 1240.03 308.242 1240.54 308.289 C 1243.38 308.553 1243.99 308.619 1246.51 309.279 C 1254.01 311.234 1257.14 308.592 1262.31 315.434 C 1248.7 313.707 1225.02 307.96 1211.6 303.964 z" fill="rgb(255,255,255)" transform="translate(0,0)"></path>
<path d="M 718.206 659.357 C 717.346 648.58 718.032 625.589 718.036 614.242 L 718.07 522.514 L 717.955 441.469 C 717.853 407.919 713.111 369.981 745.387 348.659 C 755.598 341.842 767.74 338.511 780 339.164 C 793.111 339.853 825.418 346.463 840.315 349.144 C 883.839 357.102 927.322 365.287 970.76 373.699 L 1323.55 440.061 C 1341.2 442.853 1358.83 446.423 1376.46 449.532 L 1441.1 461.811 C 1465.7 466.229 1505.4 470.41 1525.79 484.283 C 1542.68 495.767 1553.92 522.438 1554.13 542.313 C 1554.71 564.82 1554.43 587.289 1554.33 609.71 L 1554.11 726.988 L 1554.13 1144.17 L 1554.11 1358.7 L 1554.17 1417.95 C 1554.18 1433.42 1555.18 1449.72 1552.2 1464.95 C 1548.6 1483.34 1536.18 1502.25 1520.32 1512.34 C 1505.24 1521.94 1440.44 1533.55 1418.31 1538.67 L 1183.41 1592.16 C 1091.38 1614.2 999.217 1635.65 906.913 1656.49 C 872.925 1664.22 839.113 1672.83 805.123 1680.43 C 776.063 1686.93 743.423 1675 728.501 1648.55 C 723.298 1639.33 719.428 1629.96 718.565 1619.24 C 717.341 1602.62 717.885 1584.87 717.95 1568.12 L 718.06 1482.58 L 718.111 1342.91 C 718.1 1320.09 717.223 1290.46 718.199 1268.16 C 717.142 1243.38 717.987 1211.6 717.997 1186.47 L 718.114 1030.47 C 718.141 907.843 716.502 781.768 718.206 659.357 z" fill="rgb(255,255,255)" transform="translate(0,0)"></path>
<path d="M 718.206 659.357 C 720.458 666.538 720.147 686.848 720.466 695.481 C 722.821 759.21 719.615 823.223 720.828 887.017 C 721.043 898.336 721.625 909.669 721.708 920.964 L 721.443 1157.58 C 721.284 1174.77 719.992 1194.87 719.558 1212.24 C 719.341 1220.95 720.423 1263.62 718.199 1268.16 C 717.142 1243.38 717.987 1211.6 717.997 1186.47 L 718.114 1030.47 C 718.141 907.843 716.502 781.768 718.206 659.357 z" fill="rgb(251,250,244)" transform="translate(0,0)"></path>
<path d="M 1035.7 399.437 C 1049.04 408.646 1065.33 416.102 1079.99 423.087 C 1100.95 433.214 1122.12 442.884 1143.5 452.091 C 1214.41 482.726 1285.63 512.658 1357.14 541.885 L 1411.66 563.822 C 1421.47 567.798 1431.7 571.599 1441.05 576.465 C 1460.37 586.511 1469.37 608.916 1469.7 629.753 C 1470.01 649.727 1469.89 669.713 1469.86 689.698 L 1469.72 798.038 L 1469.57 1129.6 L 1469.8 1286.55 C 1469.95 1315.78 1471.87 1352.68 1467.71 1381.01 C 1462.16 1418.83 1415.29 1433.17 1386.13 1446.82 L 1233.12 1518.4 C 1218.07 1525.51 1183.89 1539.9 1171.52 1547.44 L 1170.1 1548.32 C 1154.62 1554.74 1138 1562.97 1122.72 1570.17 C 1097.74 1580.72 1059.72 1600.14 1035.43 1612.43 L 1035.7 399.437 z" fill="rgb(2,1,1)" transform="translate(0,0)"></path>
<path d="M 1131.99 1267.23 C 1119.87 1256.99 1113.31 1246.1 1109.54 1230.58 C 1102.95 1202.55 1107.63 1173.06 1122.59 1148.45 C 1155.63 1095.22 1219.81 1110.53 1231.51 1169.35 C 1235.6 1189.88 1232.04 1218.37 1220.11 1236.08 C 1217.17 1242.99 1211.53 1249.24 1206.64 1254.95 L 1206.54 1264.74 C 1206.2 1302.66 1206.29 1340.58 1206.8 1378.5 C 1181.83 1387.34 1156.22 1395.91 1131.59 1405.5 C 1132.69 1393.12 1132.11 1370.01 1132.11 1357.17 L 1131.99 1267.23 z" fill="rgb(255,255,255)" transform="translate(0,0)"></path>
<path d="M 1166.49 1163.06 C 1207.8 1158.79 1208.91 1228.2 1174.05 1241.82 C 1142.95 1243.99 1136.19 1208.47 1145.16 1185.01 C 1149.69 1173.17 1155.04 1168.12 1166.49 1163.06 z" fill="rgb(2,1,1)" transform="translate(0,0)"></path>
<path d="M 982.941 428.713 C 998.336 420.993 1014.01 412.855 1029.52 405.468 C 1028.55 436.809 1029.04 470.481 1029.03 501.946 L 1029.02 666.694 L 1029.11 1157.17 L 1029.1 1459.77 L 1029.12 1554.01 C 1029.12 1570.02 1028.51 1593.48 1029.88 1609.03 C 1014.3 1599.72 998.554 1589.81 982.911 1580.74 L 982.847 1500.44 C 968.07 1503.29 953.334 1506.35 938.643 1509.61 C 913.181 1515.17 890.672 1523.34 867.041 1507.44 C 853.785 1498.54 844.577 1484.77 841.416 1469.12 C 839.261 1458.17 840.297 1417.24 840.331 1404.27 L 840.332 1281.37 L 840.269 876.578 L 840.421 739.999 C 840.425 719.768 841.264 688.04 840.076 668.661 C 847.434 612.303 815.494 529.689 887.402 507.93 C 898.805 506.919 902.479 506.742 913.863 508.898 C 924.386 512.112 943.027 514.935 954.439 516.998 L 983.044 522.508 L 982.941 428.713 z" fill="rgb(2,1,1)" transform="translate(0,0)"></path>
<path d="M 846.299 579.598 C 850.366 582.532 853.485 584.688 857.209 588.101 C 873.107 597.717 892.738 612.99 908.813 623.467 C 917.036 628.826 936.309 641.665 943.191 647.358 C 947.586 649.415 977.071 670.409 982.867 674.444 L 983.06 1361.48 C 968.76 1363.33 950.03 1367.26 935.377 1369.9 L 846.193 1385.8 L 846.299 579.598 z" fill="rgb(248,205,133)" transform="translate(0,0)"></path>
<path d="M 857.209 588.101 C 873.107 597.717 892.738 612.99 908.813 623.467 C 917.036 628.826 936.309 641.665 943.191 647.358 C 935.09 647.137 933.531 644.515 926.735 642.706 C 924.343 644.001 923.19 647.105 920.117 646.583 C 918.636 646.331 915.937 645.289 916.507 643.45 C 917.031 641.759 920.481 642.803 920.866 640.923 C 921.001 639.171 916.098 637.557 916.19 636.367 C 918.415 633.582 921.351 641.21 924.559 637.236 C 924.23 636.655 921.133 636.32 920.992 635.608 C 920.436 632.809 913.44 632.257 913.733 632.632 L 912.196 630.634 C 910.582 630.453 904.269 630.783 904.237 628.933 C 905.491 628.197 905.134 629.014 905.556 627.62 C 904.972 627.079 904.116 626.942 904.172 626.012 C 904.591 625.491 905.02 625.382 905.619 625.172 L 905.286 625.274 C 904.892 624.183 904.351 623.696 903.174 624.487 C 901.15 626.901 893.885 621.262 893.208 619.457 C 891.128 613.906 888.489 622.278 889.637 614.452 L 889.488 614.29 C 888.469 613.957 886.704 615.096 886.058 614.099 C 884.633 611.899 881.749 612.184 880.443 611.197 L 880.427 610.861 C 880.623 610.625 880.808 610.502 881.089 610.355 C 881.492 610.144 882.239 609.959 882.545 609.498 C 882.373 609.09 875.398 606.224 875.018 605.178 C 873.392 600.695 867.145 607.38 866.13 603.338 C 866.476 602.617 867.76 602.136 868.439 601.665 C 867.857 598.219 858.36 595.519 857.523 590.001 L 857.209 588.101 z" fill="rgb(244,192,120)" transform="translate(0,0)"></path>
<path d="M 980.984 1367.24 L 982.606 1368.19 C 983.515 1380.9 982.955 1399.76 982.959 1412.84 L 983.062 1494.78 C 956.848 1499.74 930.545 1506.64 904.209 1510.76 C 888.387 1513.23 874.889 1506.88 862.97 1496.8 L 862.261 1496.08 C 839.137 1472.19 845.984 1423.84 846.512 1391.84 C 891.134 1383.01 936.243 1375.62 980.984 1367.24 z" fill="rgb(234,114,36)" transform="translate(0,0)"></path>
<path d="M 849.016 548.973 C 867.419 505.78 900.445 510.842 937.875 519.561 C 952.5 522.968 968.242 525.101 983.11 528.557 L 983.029 667.733 C 947.139 641.212 908.65 617.588 872.55 591.246 C 868.554 588.33 862.71 584.898 859.123 581.705 C 854.037 578.17 850.742 575.56 846.001 571.585 C 845.798 561.651 846.428 558.105 849.016 548.973 z" fill="rgb(234,114,36)" transform="translate(0,0)"></path>
<path d="M 1237.92 1585.11 C 1243.58 1583.7 1249.25 1582.37 1254.94 1581.11 C 1249.5 1605.33 1242.41 1621.64 1230.08 1642.77 C 1208.36 1676.3 1180.9 1701.43 1140.89 1710.24 C 1112.12 1716.58 1079.76 1708.21 1057.02 1689.75 C 1051.69 1685.82 1044.55 1679.14 1040.33 1674.05 C 1030.61 1664.65 1021.98 1648.61 1015.39 1636.76 C 1062.62 1625.96 1109.79 1614.89 1156.9 1603.55 C 1180.1 1598.06 1215.29 1588.67 1237.92 1585.11 z" fill="rgb(255,255,255)" transform="translate(0,0)"></path>
<path d="M 609.995 244.133 C 605.089 255.911 601.331 267.642 601.064 280.502 C 600.471 309.021 600.56 337.829 600.512 366.36 L 600.709 538.087 L 600.762 1041.69 L 600.597 1519.83 L 600.609 1685.15 C 600.676 1712.14 600.373 1739.41 601.033 1766.39 C 601.325 1778.29 605.399 1790.49 609.476 1801.58 C 587.989 1775.24 566.644 1746.42 544.698 1720.94 C 542.253 1721.06 543.264 1720.62 541.582 1722.06 L 541.865 1724.1 L 544.039 1725.29 L 543.549 1726.04 L 541.057 1726.39 C 537.678 1723.54 539.662 1718.42 538.585 1717.25 C 535.888 1714.31 532.744 1710.7 530.435 1706.91 C 530.011 1708.16 530.214 1707.38 530.087 1709.51 L 529.986 1711.38 C 526.358 1709.92 519.374 1692.83 518.458 1692.55 C 507.041 1689.15 515.206 1688.88 509.743 1681.3 C 506.026 1679.58 505.805 1679.52 502.614 1677.03 C 499.784 1665.49 487.872 1655.13 477.886 1649.69 C 477.554 1647.02 477.533 1645 477.478 1642.34 C 474.794 1637.2 469.335 1636.76 467.862 1634.58 C 462.751 1627.01 450.989 1613.55 450.356 1605.12 C 436.18 1586.42 426.206 1568.34 425.28 1544.41 C 424.434 1522.55 424.87 1500.28 424.904 1478.41 L 424.881 1352.97 L 424.87 943.025 L 424.893 635.259 L 424.823 544.549 C 424.782 464.412 426.929 465.359 478.767 403.646 L 524.307 348.631 L 581.229 278.865 C 590.197 267.865 600.666 254.392 609.995 244.133 z" fill="rgb(2,1,1)" transform="translate(0,0)"></path>
<path d="M 450.356 1605.12 C 481.47 1640.87 515.122 1683.55 544.698 1720.94 C 542.253 1721.06 543.264 1720.62 541.582 1722.06 L 541.865 1724.1 L 544.039 1725.29 L 543.549 1726.04 L 541.057 1726.39 C 537.678 1723.54 539.662 1718.42 538.585 1717.25 C 535.888 1714.31 532.744 1710.7 530.435 1706.91 C 530.011 1708.16 530.214 1707.38 530.087 1709.51 L 529.986 1711.38 C 526.358 1709.92 519.374 1692.83 518.458 1692.55 C 507.041 1689.15 515.206 1688.88 509.743 1681.3 C 506.026 1679.58 505.805 1679.52 502.614 1677.03 C 499.784 1665.49 487.872 1655.13 477.886 1649.69 C 477.554 1647.02 477.533 1645 477.478 1642.34 C 474.794 1637.2 469.335 1636.76 467.862 1634.58 C 462.751 1627.01 450.989 1613.55 450.356 1605.12 z" fill="rgb(255,255,255)" transform="translate(0,0)"></path>
<path d="M 518.942 1144.54 C 506.691 1139.12 493.727 1106.37 490.228 1094.32 C 472.857 1034.47 475.134 965.765 502.915 909.349 C 507.634 899.767 518.156 886.054 529.087 883.268 C 563.05 876.96 579.513 932.352 584.633 955.384 C 596.839 1010.29 592.98 1083.6 562.744 1131.86 C 552.917 1146.22 534.516 1160.54 518.942 1144.54 z" fill="rgb(255,255,255)" transform="translate(0,0)"></path>
<metadata><recraft-signature>{"signed_by": "recraft", "signature_b64": "KAldN04WIHB67FeLZYSJ600Ry6XRfV8WsZp/YL29TH8lsPC8Qc6TzuOBBW+1HAtqcFANNEI8jYOOqfa9HJDzBQ==", "signing_algo": "Ed25519", "generation_timestamp": 1783153651, "identifier": "ae9b01d5-8914-4bc7-8176-cbf6d264fb1c"}</recraft-signature></metadata></svg>